PathFileType	4	(X/Y/Z)	C:\Github\FootballMatch-and-Movement-Analysis\output\test4 Exam_2026-03-06_143128_tvc1_Sports2D\test4 Exam_2026-03-06_143128_tvc1_Sports2D_px_person00.trc
DataRate	CameraRate	NumFrames	NumMarkers	Units	OrigDataRate	OrigDataStartFrame	OrigNumFrames
30.0	30.0	13	22	m	30.0	0	320
Frame#	Time	Hip			RHip			RKnee			RAnkle			RBigToe			RSmallToe			RHeel			LHip			LKnee			LAnkle			LBigToe			LSmallToe			LHeel			Neck			Head			Nose			RShoulder			RElbow			RWrist			LShoulder			LElbow			LWrist			
		X1	Y1	Z1	X2	Y2	Z2	X3	Y3	Z3	X4	Y4	Z4	X5	Y5	Z5	X6	Y6	Z6	X7	Y7	Z7	X8	Y8	Z8	X9	Y9	Z9	X10	Y10	Z10	X11	Y11	Z11	X12	Y12	Z12	X13	Y13	Z13	X14	Y14	Z14	X15	Y15	Z15	X16	Y16	Z16	X17	Y17	Z17	X18	Y18	Z18	X19	Y19	Z19	X20	Y20	Z20	X21	Y21	Z21	X22	Y22	Z22
0	0.0	723.4742092052126	669.0363536969564	0.0	714.3093847633293	673.6186203986284	0.0	718.8918162520687	838.585655791179	0.0	732.6388723755617	985.2229071337358	0.0	682.2325760973981	1031.0464633740562	0.0	686.8156255136207	1001.2615181553499	0.0	748.6772188914907	1015.0079690428419	0.0	730.3478070263025	673.6183581639889	0.0	728.0565743833204	847.7499780883868	0.0	746.3862618764589	1001.2610097563113	0.0	677.6500823466451	1033.337320904801	0.0	702.8532647842858	1037.9202042789443	0.0	769.2983622191716	1024.173091267436	0.0	737.2214593241692	403.2564987386075	0.0	700.5621010965918	295.5703043798212	0.0	684.5238342597826	366.59751399835	0.0	730.3478085702343	433.04204391448434	0.0	718.8915386190474	547.602398809981	0.0	705.1448756734214	620.9216137366191	0.0	741.8037485113018	435.33294667658294	0.0	734.9299044913846	543.0192806972815	0.0	728.0565732677936	627.794416681386	0.0
1	0.033437826541274814	723.4185985166994	669.1047408306433	0.0	714.2553488665778	672.9879408906703	0.0	718.9370841284435	838.3866898088647	0.0	732.655356105093	984.929766525807	0.0	682.2917232693758	1030.6341018484704	0.0	686.1471815782047	1001.5229461231239	0.0	750.1336989650407	1014.5441173578682	0.0	730.2557564072542	673.5772104848888	0.0	728.7947611585109	848.20267502767	0.0	745.4667645729066	1001.5305710223873	0.0	677.7018362960538	1034.238089356339	0.0	702.8756610090106	1038.097184499481	0.0	768.3101559890097	1023.7188259968192	0.0	737.204365350417	402.7893919050547	0.0	699.8258966303086	295.2969574503564	0.0	684.7239557612761	366.7920703615419	0.0	731.0129919576215	433.13442848811667	0.0	719.7350440001028	547.3091459508296	0.0	706.0780869182147	618.7313128674875	0.0	742.487251222293	435.4045425507034	0.0	736.4870120500085	542.7156785419688	0.0	729.5903042209331	626.7116575646556	0.0
2	0.06687565308254963	722.9329434779743	669.8340605311582	0.0	714.1610825310418	672.5968492839828	0.0	719.3171883984228	838.5852254471665	0.0	732.8961771324248	985.0948392224024	0.0	682.2515412557253	1030.3823458172337	0.0	685.7846237807904	1001.6969703648755	0.0	751.4263028486757	1014.6815651097944	0.0	729.9941027159759	673.5785215584026	0.0	729.2952253163386	848.6837789636023	0.0	744.7592939005485	1002.0118123293216	0.0	677.6418681281117	1035.520568180998	0.0	702.7040284615529	1038.299934723029	0.0	767.513977791111	1023.6801999708778	0.0	737.2150463727886	402.61554378311087	0.0	698.7858628857116	295.32076977185864	0.0	684.9657144973809	367.4456606258011	0.0	731.4953343709636	433.20537404053294	0.0	720.8337593733958	547.2277815089026	0.0	707.2158082500536	618.7269843080211	0.0	742.9334611430237	435.4186704478073	0.0	737.8176632384035	542.3137911571546	0.0	730.9751014902203	627.8928270932441	0.0
3	0.10031347962382445	722.2839783153473	670.9605424130768	0.0	714.108320469187	672.4091847340237	0.0	719.9277560667347	838.5005291341279	0.0	733.2752473105193	985.5303113143077	0.0	682.2287477650176	1030.1915790561545	0.0	686.047872491709	1001.6094504092208	0.0	751.9885627576856	1015.3657716377369	0.0	729.6804666301789	673.6686424518426	0.0	729.3280020578693	848.3809656486692	0.0	744.8150537289982	1002.5214142290155	0.0	677.6772019155221	1036.7598550015923	0.0	702.4061394562061	1038.3659205346257	0.0	767.4396749073878	1023.9960058922741	0.0	737.374385264356	402.8711581055175	0.0	697.7947943719428	295.8983608560174	0.0	685.2352983209614	368.6787868540197	0.0	731.7509428554927	433.29194652196827	0.0	721.8299459045298	547.4332913513068	0.0	708.0876917486966	620.558062294085	0.0	742.937603639758	435.48534032350335	0.0	738.2156630756263	541.9679058434749	0.0	731.6100786294867	630.9380904614493	0.0
4	0.13375130616509925	722.3413946334208	671.2641247109678	0.0	714.0013575962394	672.0690096157452	0.0	720.2940232207538	837.4413414589789	0.0	733.5265498004379	985.5204978201365	0.0	682.3316668726039	1029.8926331701562	0.0	686.6750937455976	1001.2023834313092	0.0	751.8993305532819	1015.7886282034625	0.0	729.5897722514682	673.7613169945878	0.0	729.2400468621306	846.8909869637029	0.0	745.7383153851733	1002.5959118439115	0.0	678.0861667791006	1037.1755681956593	0.0	702.2905356261952	1038.3107739518969	0.0	768.1982035180959	1024.1816551136517	0.0	738.0320443978559	403.31475598095847	0.0	697.2722557223674	296.555189581097	0.0	685.7213457968899	369.83957291952527	0.0	732.1511279250328	433.4974933413658	0.0	722.5120272424274	547.6880804183477	0.0	708.3649200141799	621.4645790743657	0.0	742.851543508758	435.92837553358254	0.0	737.829610347343	542.0236192739992	0.0	731.4851221382853	632.3632458993034	0.0
5	0.16718913270637406	723.2855222697815	669.9269259146963	0.0	713.6482479019224	671.3412364807712	0.0	720.2191396685928	836.2265888126152	0.0	733.5868832838976	984.9603083927522	0.0	682.5978985231718	1029.4892872353898	0.0	687.0886675529733	1001.0446307200409	0.0	751.9510275453819	1015.5923043027298	0.0	729.9214040204147	673.3387158061253	0.0	729.6499694167778	845.173424398184	0.0	746.5879716871837	1002.0204659136654	0.0	678.6977868685169	1036.4936653559475	0.0	702.6361724438009	1038.5895460151908	0.0	769.1499841641428	1024.141160473391	0.0	739.1827402613478	403.40921013661085	0.0	697.192799562128	296.5466060034109	0.0	686.4193851484438	370.1303357858396	0.0	732.8364305088251	433.8514558109159	0.0	723.0118169612701	547.6894187582569	0.0	708.2175759565393	620.4225550521339	0.0	743.264778305405	436.811302245009	0.0	737.7441703662229	542.6543075556109	0.0	731.2168079357181	630.1058928952145	0.0
6	0.2006269592476489	724.2217616361322	667.9219233011164	0.0	713.2335260555833	670.2451686206339	0.0	720.0011782419051	835.8015540339823	0.0	733.5462344915028	984.6064175218935	0.0	683.3802413657204	1029.0512434214543	0.0	687.3260659276664	1001.9853060627943	0.0	752.3542196761118	1015.2567402610405	0.0	730.5697396320281	671.8106423747973	0.0	730.4866576343939	844.0988894122398	0.0	746.0826383177438	1001.1941325481479	0.0	679.0694332925738	1035.1754262170984	0.0	703.3169781721906	1039.3746665818512	0.0	769.6626630166334	1024.1909286952807	0.0	740.1333782617141	402.885544279162	0.0	697.356154904247	296.358262393952	0.0	686.8208428242381	369.91735827358673	0.0	733.3756979459903	434.4013088810144	0.0	722.8866382006183	547.4892306401064	0.0	707.8586777105977	619.2364630524482	0.0	744.0895796379344	437.63339251106134	0.0	738.179966602449	543.2654055322583	0.0	731.1195932039557	626.3893903477033	0.0
7	0.2340647857889237	724.5498565250762	667.1587884241718	0.0	713.0783563552332	669.2103446705519	0.0	719.9200942824929	835.731145322831	0.0	733.3251453640156	984.902199868276	0.0	684.7447671747269	1028.8512832286142	0.0	687.6532005000313	1003.4414317263055	0.0	752.1991620754778	1015.0707675703562	0.0	731.1006049482882	669.8249158292326	0.0	731.1233893235129	843.6813416500812	0.0	744.3014694727407	1000.7808440552453	0.0	679.0876640544412	1033.9956685931893	0.0	703.855304353621	1040.0945376166842	0.0	769.749622913123	1024.3443547014876	0.0	740.4551532266769	402.3130572388205	0.0	697.5765161100001	296.9841310800236	0.0	686.7206919071266	370.1775806976036	0.0	733.5461092116243	435.13402876658824	0.0	721.6855776166755	547.5011218235675	0.0	707.6404788945335	619.2268646709412	0.0	744.7121165535559	437.8398372210578	0.0	738.4358387751415	543.032749122023	0.0	731.1575003735587	624.1850806341248	0.0
8	0.2675026123301985	724.5361784677476	667.9229639745217	0.0	713.1532352055701	668.8881318264725	0.0	719.9551858564797	835.3819136071883	0.0	732.8806450045679	985.4072032409198	0.0	685.8386705195217	1029.2643798839545	0.0	687.6166796911782	1003.6790503211139	0.0	750.9658317509296	1014.9720476341574	0.0	731.2724773171503	669.0216712132743	0.0	731.3141805310272	843.9056946496662	0.0	743.0722038914242	1000.8085456158165	0.0	679.0241701416195	1033.546726638665	0.0	704.0775573997562	1040.301159152857	0.0	769.7482623586194	1024.3598745967686	0.0	740.4365161003291	402.4335096883611	0.0	697.6787207597599	297.8903343887749	0.0	686.6080954083883	370.8267858648047	0.0	733.5786450657033	435.5276003869768	0.0	720.4534601607268	547.8902781038123	0.0	707.7578718728059	619.671481041508	0.0	744.9131915428381	437.2748839230345	0.0	738.517804614281	542.3756142216666	0.0	731.2798551716382	623.819939239224	0.0
9	0.3009404388714733	724.5277155178777	668.6567243994825	0.0	713.2473140306782	669.2648256745254	0.0	719.9799400831545	835.074093871229	0.0	732.6181687558698	985.5422409584074	0.0	686.1042998343573	1030.1430321639511	0.0	686.8950315251343	1002.6918877412946	0.0	750.0408176894324	1015.0059433021312	0.0	731.2745758692276	669.878783745844	0.0	731.3159269759249	844.6456110965051	0.0	743.5255568858408	1000.6749464485166	0.0	679.0786085946534	1033.868852278582	0.0	704.2138666656716	1040.2884202487776	0.0	769.7825218442466	1024.3030568738002	0.0	740.4195343393837	403.04330717318527	0.0	697.6065232003292	297.7722745153374	0.0	686.6956499220717	371.08675237790635	0.0	733.6542173898813	435.36772302224404	0.0	720.6630956318912	548.0872386686885	0.0	707.8572547794068	619.3854260446357	0.0	744.9497891248866	436.4908201673312	0.0	738.9237299127401	542.4584153359347	0.0	731.4286866348749	624.0195747631208	0.0
10	0.3343782654127481	724.5592153234217	668.5132668259437	0.0	713.2728906066764	669.8592116230363	0.0	719.9934081942106	835.7444273833478	0.0	732.9479073657333	985.5860779959784	0.0	686.0228035307618	1030.8724074225563	0.0	686.5579298139971	1002.5139580407271	0.0	750.8474149018351	1015.149990788389	0.0	731.2999101951611	671.2484761244232	0.0	731.2775039553188	845.3930188639567	0.0	744.6278510819207	1000.3355832348186	0.0	679.1521454772532	1034.3026967816063	0.0	704.2077716534513	1040.6070809803718	0.0	769.8791597747503	1024.7947638070145	0.0	740.4787481814896	403.44596987956066	0.0	697.3816730001316	296.80583534542717	0.0	686.4804727690423	370.98748858295596	0.0	733.6932795461487	435.3768030566895	0.0	721.8125010270911	547.6434394357896	0.0	707.8619912652234	619.1787200558718	0.0	744.8379533278198	436.270727578038	0.0	739.2716350235128	543.125926705646	0.0	731.418104405107	624.0244277104872	0.0
11	0.36781609195402293	724.5686777844103	668.1827618093512	0.0	713.2592867952704	670.6544335644629	0.0	720.1849306109455	837.5302545025886	0.0	733.7426056439286	986.2684768564478	0.0	686.0224016446239	1031.0813757170733	0.0	687.6655830918647	1004.2851623775464	0.0	752.7611022688468	1015.2747666635632	0.0	731.3368373440542	672.2533846440746	0.0	731.1094927579982	845.845905501488	0.0	745.1321891082629	1000.2426178329716	0.0	679.2306968310721	1034.1873145797167	0.0	703.5908068096562	1041.213958688993	0.0	770.1437573016295	1026.2403089838172	0.0	740.5197648780861	403.48011585604337	0.0	697.016513698558	296.28626676444566	0.0	685.766919908586	371.01852849141153	0.0	733.4752506849935	435.7925650419596	0.0	722.1644380445565	547.2786125566923	0.0	708.0957635249631	621.0355008866788	0.0	744.274536969355	436.44392134973623	0.0	738.6457663838223	543.4251791518519	0.0	730.9842638556154	624.1458475878388	0.0
12	0.4012539184952978	724.5283007337973	668.444030200241	0.0	713.2222432780352	671.9875604134503	0.0	720.6191922288813	838.8580159950732	0.0	734.678337064934	987.2934321973094	0.0	685.8344753976146	1030.9585004483288	0.0	689.3737107472965	1007.2136874420694	0.0	754.6687662452202	1015.6084467009359	0.0	731.3278366883526	673.4408290835921	0.0	730.7695486490715	846.1105407719594	0.0	745.046246550316	1000.1868583724266	0.0	679.520769024636	1033.691947955093	0.0	702.1656563274444	1041.3860436210223	0.0	770.3835682550489	1027.7573028231357	0.0	740.2895606634825	403.433661495867	0.0	696.6061290622064	296.5634890562582	0.0	685.0646532413435	370.9157846053274	0.0	732.9736823391379	436.1038711160311	0.0	721.6660381427844	547.873405377869	0.0	708.4518097975449	623.7119508762519	0.0	743.3693056840018	436.4481921483021	0.0	736.9513648331628	544.0359374371607	0.0	730.1492198553196	624.9546802370064	0.0
